<svg width="45" height="45" viewBox="0 0 45 45" fill="none" xmlns="http://www.w3.org/2000/svg">
<g id="carbon:view">
<rect width="45" height="45" rx="10" fill="#26599F" fill-opacity="0.25"/>
<path id="Vector" d="M39.9305 21.437C38.5583 17.8875 36.176 14.8179 33.0782 12.6075C29.9804 10.3972 26.3028 9.14301 22.5 9C18.6972 9.14301 15.0196 10.3972 11.9218 12.6075C8.82396 14.8179 6.44173 17.8875 5.06951 21.437C4.97683 21.6934 4.97683 21.974 5.06951 22.2304C6.44173 25.7799 8.82396 28.8495 11.9218 31.0599C15.0196 33.2702 18.6972 34.5244 22.5 34.6674C26.3028 34.5244 29.9804 33.2702 33.0782 31.0599C36.176 28.8495 38.5583 25.7799 39.9305 22.2304C40.0232 21.974 40.0232 21.6934 39.9305 21.437ZM22.5 32.334C16.3165 32.334 9.78297 27.7489 7.41457 21.8337C9.78297 15.9185 16.3165 11.3334 22.5 11.3334C28.6835 11.3334 35.217 15.9185 37.5854 21.8337C35.217 27.7489 28.6835 32.334 22.5 32.334Z" fill="#26599F"/>
<path id="Vector_2" d="M23 16C21.8133 16 20.6533 16.3519 19.6666 17.0112C18.6799 17.6705 17.9109 18.6075 17.4567 19.7039C17.0026 20.8003 16.8838 22.0067 17.1153 23.1705C17.3468 24.3344 17.9182 25.4035 18.7574 26.2426C19.5965 27.0818 20.6656 27.6532 21.8295 27.8847C22.9933 28.1162 24.1997 27.9974 25.2961 27.5433C26.3925 27.0891 27.3295 26.3201 27.9888 25.3334C28.6481 24.3467 29 23.1867 29 22C29 20.4087 28.3679 18.8826 27.2426 17.7574C26.1174 16.6321 24.5913 16 23 16ZM23 26C22.2089 26 21.4355 25.7654 20.7777 25.3259C20.1199 24.8864 19.6072 24.2616 19.3045 23.5307C19.0017 22.7998 18.9225 21.9956 19.0769 21.2196C19.2312 20.4437 19.6122 19.731 20.1716 19.1716C20.731 18.6122 21.4437 18.2312 22.2196 18.0769C22.9956 17.9225 23.7998 18.0017 24.5307 18.3045C25.2616 18.6072 25.8864 19.1199 26.3259 19.7777C26.7654 20.4355 27 21.2089 27 22C27 23.0609 26.5786 24.0783 25.8284 24.8284C25.0783 25.5786 24.0609 26 23 26Z" fill="#26599F"/>
</g>
</svg>
